<?xml version="1.0" encoding="utf-8"?>
<!-- Generator: Adobe Illustrator 21.1.0, SVG Export Plug-In . SVG Version: 6.00 Build 0)  -->
<svg version="1.1" id="Layer_1" xmlns="http://www.w3.org/2000/svg" xmlns:xlink="http://www.w3.org/1999/xlink" x="0px" y="0px"
	 viewBox="0 0 1000 1000" style="enable-background:new 0 0 1000 1000;" xml:space="preserve">
<style type="text/css">
	.st0{fill:#FFFFFF;}
</style>
<path class="st0" d="M970.6,627.8c-3.3-3.2-9.7-7.4-9.7-7.4L574.1,320.7c0,0,6-166.8-4.9-221C563.3,70.2,530.3,0.9,500,0
	c-30.3,0.9-63.3,70.2-69.3,99.8c-10.9,54.2-26.3,237.5-26.3,237.5L39,620.4c0,0-6.4,4.2-9.7,7.4c-6.6,6.5-5.1,32-5.1,32l7.1,72.7
	l381.9-212.2l37.6,304.1L338.1,941.8l-27.5,58.2L500,948.4l189.3,51.6l-27.5-58.2L549.1,824.3l37.6-304l381.9,212.1l7.1-72.6
	C975.7,659.7,977.2,634.2,970.6,627.8z"/>
</svg>
